<svg xmlns="http://www.w3.org/2000/svg" xmlns:xlink="http://www.w3.org/1999/xlink" viewBox="0 0 1921.94 756.19"><defs><style>.cls-1,.cls-4{fill:#e54091;}.cls-2{opacity:0.23;}.cls-3{clip-path:url(#clip-path);}.cls-4{opacity:0.4;}</style><clipPath id="clip-path"><path class="cls-1" d="M1437.27,485.89c-263.93,12.43-518.7,64.18-771.66,110.79C449,636.6,224.28,673.6,0,679V99.05c189.2,54.51,428.34,67.09,658.82,67.21,261.25.13,528.16-13.06,779.29,13.25,191.92,20.1,378,69.3,482.32,145.31V522.49c-143.16-33.76-316.61-44.44-483.16-36.6"/></clipPath></defs><g id="Layer_2" data-name="Layer 2"><g id="Camada_1" data-name="Camada 1"><g class="cls-2"><path class="cls-1" d="M1437.27,485.89c-263.93,12.43-518.7,64.18-771.66,110.79C449,636.6,224.28,673.6,0,679V99.05c189.2,54.51,428.34,67.09,658.82,67.21,261.25.13,528.16-13.06,779.29,13.25,191.92,20.1,378,69.3,482.32,145.31V522.49c-143.16-33.76-316.61-44.44-483.16-36.6"/><g class="cls-3"><polygon class="cls-1" points="0 99.05 0 756.19 1920.43 679 1920.43 21.86 0 99.05"/></g></g><path class="cls-4" d="M1325.25,609.07c-244.47-44.81-469-125.05-715.28-166C409.59,409.77,178.91,408,1.51,467.11V207.83c308.13,49.6,644.35,33,934.56-47.62,163.16-45.35,312.8-110.14,484.83-140.93C1584-9.9,1762.22-5.57,1921.94,29.66v576.8c-181.21,47.39-403,38.14-596.69,2.61"/></g></g></svg>